<svg width="115" height="67" viewBox="0 0 115 67" fill="none" xmlns="http://www.w3.org/2000/svg">
<path d="M19.28 59.9297V43.6073H21.9466V59.9297H19.28ZM13.6 44.119V41.5872H27.8933V44.119H13.6ZM30.3529 53.1152H40.1396V55.6471H30.3529V53.1152ZM26.9396 59.9297L33.4196 41.5872H37.0463L43.5263 59.9297H40.8063L34.993 43.4726H35.473L29.6596 59.9297H26.9396ZM56.315 59.9297H45.8083V41.5872H48.475V57.7749L48.155 57.3978H56.315V59.9297ZM59.246 59.9297V41.5872H61.9126V59.9297H59.246ZM69.5393 59.9297L60.926 50.9335V50.6372L69.646 41.5872H72.9793L63.3526 51.5799L63.6193 49.9908L73.1393 59.9297H69.5393Z" fill="#F95C3B"/>
<path d="M0 17.3392C0 7.76301 7.68577 0 17.1667 0H115L110.492 0.661563C91.5397 3.44289 91.4333 31.0304 110.364 33.9606L115 34.6784H17.1667C7.68577 34.6784 0 26.9154 0 17.3392Z" fill="#F95C3B"/>
<path d="M13.9333 26.5981V8.2556H19.96C21.1867 8.2556 22.2178 8.43515 23.0534 8.79429C23.9067 9.13545 24.5556 9.67414 25 10.4104C25.4445 11.1286 25.6667 12.0444 25.6667 13.1577C25.6667 14.0914 25.4356 14.9174 24.9733 15.6357C24.5111 16.3539 23.8978 16.9106 23.1334 17.3056C22.3867 17.7007 21.5778 17.8982 20.7067 17.8982L20.8934 16.4976C21.9778 16.4976 22.92 16.6951 23.72 17.0902C24.5378 17.4673 25.1778 18.0239 25.64 18.7601C26.1023 19.4963 26.3334 20.3941 26.3334 21.4536C26.3334 23.1235 25.8178 24.3985 24.7867 25.2783C23.7734 26.1582 22.3156 26.5981 20.4134 26.5981H13.9333ZM16.6 9.95248V24.7127L15.5333 24.0124H20.4934C21.4889 24.0124 22.2534 23.752 22.7867 23.2313C23.3378 22.6926 23.6133 22.0102 23.6133 21.1842C23.6133 20.2505 23.3467 19.5412 22.8134 19.0564C22.2978 18.5716 21.5422 18.3292 20.5467 18.3292H15.5333V15.8512H20.04C20.9822 15.8512 21.7022 15.6447 22.2 15.2317C22.6978 14.8007 22.9467 14.1812 22.9467 13.3732C22.9467 12.637 22.6889 12.0354 22.1733 11.5686C21.6756 11.0837 20.9644 10.8413 20.04 10.8413H15.64L16.6 9.95248ZM28.4563 17.4403C28.4563 16.0756 28.6874 14.8187 29.1496 13.6695C29.6296 12.5203 30.2963 11.5237 31.1496 10.6797C32.003 9.83575 32.9985 9.18036 34.1363 8.71349C35.2917 8.24661 36.545 8.01318 37.8964 8.01318C39.2297 8.01318 40.465 8.24661 41.603 8.71349C42.7407 9.18036 43.7273 9.83575 44.563 10.6797C45.4163 11.5237 46.074 12.5203 46.5363 13.6695C47.0163 14.8187 47.2563 16.0756 47.2563 17.4403C47.2563 18.7871 47.0163 20.035 46.5363 21.1842C46.074 22.3334 45.4163 23.339 44.563 24.2009C43.7273 25.0449 42.7407 25.7003 41.603 26.1672C40.465 26.634 39.2297 26.8675 37.8964 26.8675C36.545 26.8675 35.2917 26.634 34.1363 26.1672C32.9985 25.7003 32.003 25.0449 31.1496 24.2009C30.2963 23.339 29.6296 22.3334 29.1496 21.1842C28.6874 20.035 28.4563 18.7871 28.4563 17.4403ZM31.1763 17.4403C31.1763 18.7511 31.4696 19.9273 32.0563 20.9688C32.643 21.9923 33.443 22.8003 34.4564 23.3929C35.4697 23.9854 36.6164 24.2817 37.8964 24.2817C39.1764 24.2817 40.314 23.9854 41.3097 23.3929C42.305 22.8003 43.0873 21.9923 43.6563 20.9688C44.243 19.9273 44.5363 18.7511 44.5363 17.4403C44.5363 16.1115 44.243 14.9354 43.6563 13.9119C43.0873 12.8884 42.305 12.0803 41.3097 11.4878C40.314 10.8952 39.1764 10.5989 37.8964 10.5989C36.6164 10.5989 35.4697 10.8952 34.4564 11.4878C33.443 12.0803 32.643 12.8884 32.0563 13.9119C31.4696 14.9354 31.1763 16.1115 31.1763 17.4403ZM49.1074 17.4403C49.1074 16.0756 49.3383 14.8187 49.8007 13.6695C50.2807 12.5203 50.9473 11.5237 51.8007 10.6797C52.654 9.83575 53.6497 9.18036 54.7873 8.71349C55.943 8.24661 57.1964 8.01318 58.5473 8.01318C59.8807 8.01318 61.1163 8.24661 62.254 8.71349C63.3917 9.18036 64.3783 9.83575 65.214 10.6797C66.0673 11.5237 66.725 12.5203 67.1873 13.6695C67.6674 14.8187 67.9073 16.0756 67.9073 17.4403C67.9073 18.7871 67.6674 20.035 67.1873 21.1842C66.725 22.3334 66.0673 23.339 65.214 24.2009C64.3783 25.0449 63.3917 25.7003 62.254 26.1672C61.1163 26.634 59.8807 26.8675 58.5473 26.8675C57.1964 26.8675 55.943 26.634 54.7873 26.1672C53.6497 25.7003 52.654 25.0449 51.8007 24.2009C50.9473 23.339 50.2807 22.3334 49.8007 21.1842C49.3383 20.035 49.1074 18.7871 49.1074 17.4403ZM51.8273 17.4403C51.8273 18.7511 52.1207 19.9273 52.7073 20.9688C53.294 21.9923 54.094 22.8003 55.1074 23.3929C56.1207 23.9854 57.2673 24.2817 58.5473 24.2817C59.8274 24.2817 60.965 23.9854 61.9607 23.3929C62.9564 22.8003 63.7383 21.9923 64.3074 20.9688C64.894 19.9273 65.1873 18.7511 65.1873 17.4403C65.1873 16.1115 64.894 14.9354 64.3074 13.9119C63.7383 12.8884 62.9564 12.0803 61.9607 11.4878C60.965 10.8952 59.8274 10.5989 58.5473 10.5989C57.2673 10.5989 56.1207 10.8952 55.1074 11.4878C54.094 12.0803 53.294 12.8884 52.7073 13.9119C52.1207 14.9354 51.8273 16.1115 51.8273 17.4403ZM70.9647 26.5981V8.2556H73.6313V26.5981H70.9647ZM81.258 26.5981L72.6447 17.6019V17.3056L81.3647 8.2556H84.698L75.0714 18.2484L75.338 16.6592L84.858 26.5981H81.258Z" fill="white"/>
</svg>
