<svg width="68" height="68" viewBox="0 0 68 68" fill="none" xmlns="http://www.w3.org/2000/svg">
<g clip-path="url(#clip0_0_261)">
<path d="M34 0C24.9847 0 16.3306 3.58434 9.96094 9.95828C3.58473 16.3348 0.00182457 24.9825 0 34C0 43.0137 3.58594 51.6678 9.96094 58.0417C16.3306 64.4157 24.9847 68 34 68C43.0153 68 51.6694 64.4157 58.0391 58.0417C64.4141 51.6678 68 43.0137 68 34C68 24.9863 64.4141 16.3322 58.0391 9.95828C51.6694 3.58434 43.0153 0 34 0Z" fill="url(#paint0_linear_0_261)"/>
<path d="M15.3903 33.6409C25.3035 29.3229 31.9122 26.4761 35.2166 25.1005C44.6622 21.173 46.6225 20.4908 47.9028 20.4677C48.1844 20.4632 48.8113 20.5328 49.2203 20.8635C49.5603 21.1424 49.6559 21.5196 49.7038 21.7844C49.7463 22.049 49.8047 22.652 49.7569 23.1227C49.2469 28.4989 47.0316 41.5453 45.9053 47.5671C45.4325 50.1149 44.4922 50.9692 43.5838 51.0526C41.6075 51.2343 40.1094 49.7478 38.1969 48.4946C35.206 46.5327 33.5166 45.3119 30.6106 43.3978C27.2531 41.1857 29.4313 39.9697 31.3438 37.9828C31.8431 37.4627 40.545 29.5497 40.7097 28.832C40.7309 28.7422 40.7522 28.4075 40.5503 28.2312C40.3538 28.0542 40.0616 28.1148 39.8491 28.1626C39.5463 28.2306 34.7703 31.3905 25.5053 37.6417C24.1506 38.5735 22.9235 39.0277 21.8185 39.0038C20.6072 38.9778 18.2697 38.3175 16.5325 37.7533C14.4075 37.0611 12.7128 36.695 12.8616 35.5194C12.936 34.9074 13.7806 34.281 15.3903 33.6409Z" fill="white"/>
</g>
<defs>
<linearGradient id="paint0_linear_0_261" x1="3400" y1="0" x2="3400" y2="6800" gradientUnits="userSpaceOnUse">
<stop stop-color="#2AABEE"/>
<stop offset="1" stop-color="#229ED9"/>
</linearGradient>
<clipPath id="clip0_0_261">
<rect width="68" height="68" fill="white"/>
</clipPath>
</defs>
</svg>
